<svg width="954" height="784" xmlns="http://www.w3.org/2000/svg" xmlns:xlink="http://www.w3.org/1999/xlink" overflow="hidden"><defs><clipPath id="clip0"><rect x="1145" y="343" width="954" height="784"/></clipPath><linearGradient x1="1305" y1="1024" x2="2035" y2="1024" gradientUnits="userSpaceOnUse" spreadMethod="reflect" id="fill1"><stop offset="0" stop-color="#C5E0B4" stop-opacity="1"/><stop offset="0.36" stop-color="#FFD966" stop-opacity="1"/><stop offset="0.77" stop-color="#F4B183" stop-opacity="1"/><stop offset="1" stop-color="#FF0000" stop-opacity="1"/></linearGradient><linearGradient x1="0" y1="72.4999" x2="730" y2="72.4999" gradientUnits="userSpaceOnUse" spreadMethod="reflect" id="fill2"><stop offset="0" stop-color="#C5E0B4" stop-opacity="1"/><stop offset="0.36" stop-color="#FFD966" stop-opacity="1"/><stop offset="0.77" stop-color="#F4B183" stop-opacity="1"/><stop offset="1" stop-color="#FF0000" stop-opacity="1"/></linearGradient></defs><g clip-path="url(#clip0)" transform="translate(-1145 -343)"><path d="M1353 865.844 1972.22 865.844 1972.22 876.157 1353 876.156ZM1967.06 855.532 1998 871 1967.06 886.469Z" fill="#000000" fill-rule="nonzero" fill-opacity="1"/><path d="M5.15625-4.02637e-06 5.15659 436.385-5.15591 436.385-5.15625 4.02637e-06ZM15.4691 431.229 0.000360892 462.166-15.4684 431.229Z" fill="#000000" fill-rule="nonzero" fill-opacity="1" transform="matrix(1 0 0 -1 1357 870.166)"/><text fill="#000000" fill-opacity="1" font-family="Arial,Arial_MSFontService,sans-serif" font-style="normal" font-variant="normal" font-weight="400" font-stretch="normal" font-size="92" text-anchor="start" direction="ltr" writing-mode="lr-tb" unicode-bidi="normal" text-decoration="none" transform="matrix(1 0 0 1 1345.01 964)">#Bootstrappin<tspan fill="#000000" fill-opacity="1" font-family="Arial,Arial_MSFontService,sans-serif" font-style="normal" font-variant="normal" font-weight="400" font-stretch="normal" font-size="92" text-anchor="start" direction="ltr" writing-mode="lr-tb" unicode-bidi="normal" text-decoration="none" x="565.469" y="0">g</tspan></text><text fill="#000000" fill-opacity="1" font-family="Arial,Arial_MSFontService,sans-serif" font-style="normal" font-variant="normal" font-weight="400" font-stretch="normal" font-size="92" text-anchor="start" direction="ltr" writing-mode="lr-tb" unicode-bidi="normal" text-decoration="none" transform="matrix(-1.83697e-16 -1 1 -1.83697e-16 1326.96 779)">Accuracy</text><path d="M1305 1024 1370 959 1370 991.5 2035 991.5 2035 1056.5 1370 1056.5 1370 1089Z" fill="url(#fill1)" fill-rule="evenodd"/><text fill="#000000" fill-opacity="1" font-family="Calibri,Calibri_MSFontService,sans-serif" font-style="normal" font-variant="normal" font-weight="400" font-stretch="normal" font-size="83" text-anchor="start" direction="ltr" writing-mode="lr-tb" unicode-bidi="normal" text-decoration="none" transform="matrix(1 0 0 1 1402.02 1052)">Lower the Better<tspan fill="#000000" fill-opacity="1" font-family="Arial,Arial_MSFontService,sans-serif" font-style="normal" font-variant="normal" font-weight="400" font-stretch="normal" font-size="92" text-anchor="start" direction="ltr" writing-mode="lr-tb" unicode-bidi="normal" text-decoration="none" x="-28.0026" y="-220">Solution 1</tspan><tspan fill="#000000" fill-opacity="1" font-family="Arial,Arial_MSFontService,sans-serif" font-style="normal" font-variant="normal" font-weight="400" font-stretch="normal" font-size="92" text-anchor="start" direction="ltr" writing-mode="lr-tb" unicode-bidi="normal" text-decoration="none" x="89.5321" y="-408">Solution 2</tspan><tspan fill="#000000" fill-opacity="1" font-family="Arial,Arial_MSFontService,sans-serif" font-style="normal" font-variant="normal" font-weight="400" font-stretch="normal" font-size="92" text-anchor="start" direction="ltr" writing-mode="lr-tb" unicode-bidi="normal" text-decoration="none" x="231.338" y="-589">Solution </tspan><tspan fill="#000000" fill-opacity="1" font-family="Arial,Arial_MSFontService,sans-serif" font-style="normal" font-variant="normal" font-weight="400" font-stretch="normal" font-size="92" text-anchor="start" direction="ltr" writing-mode="lr-tb" unicode-bidi="normal" text-decoration="none" x="588.265" y="-589">3</tspan></text><path d="M0 0 53.4525 89.9856" stroke="#4472C4" stroke-width="6.875" stroke-linecap="butt" stroke-linejoin="miter" stroke-miterlimit="8" stroke-dasharray="20.625 6.875" stroke-opacity="1" fill="none" fill-rule="evenodd" transform="matrix(1 0 0 -1 1545.5 755.486)"/><path d="M0 0 125.271 101.401" stroke="#4472C4" stroke-width="6.875" stroke-linecap="butt" stroke-linejoin="miter" stroke-miterlimit="8" stroke-dasharray="20.625 6.875" stroke-opacity="1" fill="none" fill-rule="evenodd" transform="matrix(1 0 0 -1 1653.5 564.901)"/><path d="M0 72.5003 72.5002 0 72.5002 36.2501 730 36.2501 730 108.75 72.5002 108.75 72.5002 145Z" fill="url(#fill2)" fill-rule="evenodd" transform="matrix(6.12323e-17 1 1 -6.12323e-17 1149 365)"/><text fill="#000000" fill-opacity="1" font-family="Calibri,Calibri_MSFontService,sans-serif" font-style="normal" font-variant="normal" font-weight="400" font-stretch="normal" font-size="83" text-anchor="start" direction="ltr" writing-mode="lr-tb" unicode-bidi="normal" text-decoration="none" transform="matrix(-1.83697e-16 -1 1 -1.83697e-16 1248.98 1040)">Higher the Better</text></g></svg>