<svg width="275" height="449" xmlns="http://www.w3.org/2000/svg" xmlns:xlink="http://www.w3.org/1999/xlink" overflow="hidden"><defs><clipPath id="clip0"><rect x="1283" y="421" width="275" height="449"/></clipPath></defs><g clip-path="url(#clip0)" transform="translate(-1283 -421)"><path d="M1289.5 801.5 1355.5 730.102 1355.5 763.102C1453.76 746.765 1528.78 695.606 1548.48 631.5 1575.64 719.891 1490.98 806.576 1355.5 829.102L1355.5 862.102Z" fill="#A5A5A5" fill-rule="evenodd" fill-opacity="1"/><path d="M1553.5 664.5C1553.5 570.612 1435.3 494.5 1289.5 494.5L1289.5 428.5C1435.3 428.5 1553.5 504.612 1553.5 598.5Z" fill="#858585" fill-rule="evenodd" fill-opacity="1"/><path d="M1553.5 664.5C1553.5 570.612 1435.3 494.5 1289.5 494.5L1289.5 428.5C1435.3 428.5 1553.5 504.612 1553.5 598.5L1553.5 664.5C1553.5 742.02 1472.06 809.722 1355.5 829.102L1355.5 862.102 1289.5 801.5 1355.5 730.102 1355.5 763.102C1453.76 746.765 1528.78 695.606 1548.48 631.5" stroke="#787878" stroke-width="4.58333" stroke-linecap="butt" stroke-linejoin="miter" stroke-miterlimit="8" stroke-opacity="1" fill="none" fill-rule="evenodd"/></g></svg>