<?xml version="1.0" encoding="utf-8"?>
<svg xmlns="http://www.w3.org/2000/svg" viewBox="0 0 44 57" width="1024" height="1326.55">
  <defs>
    <svg xmlns="http://www.w3.org/2000/svg" shape-rendering="geometricPrecision" class="qrcode" viewBox="0 0 29 29" id="qrcode">
      <rect fill="#FFFFFF" width="100%" height="100%"/>
      <path class="modules" fill="#4A9B6A" d="M10 2 m0 0h1v1h-1z M12 2 m0 0h1v1h-1z M14 2 m0 0h1v1h-1z M15 2 m0 0h1v1h-1z M16 2 m0 0h1v1h-1z M17 2 m0 0h1v1h-1z M16 3 m0 0h1v1h-1z M18 3 m0 0h1v1h-1z M10 4 m0 0h1v1h-1z M11 4 m0 0h1v1h-1z M13 4 m0 0h1v1h-1z M14 4 m0 0h1v1h-1z M15 4 m0 0h1v1h-1z M16 4 m0 0h1v1h-1z M17 4 m0 0h1v1h-1z M11 5 m0 0h1v1h-1z M12 5 m0 0h1v1h-1z M14 5 m0 0h1v1h-1z M15 5 m0 0h1v1h-1z M16 5 m0 0h1v1h-1z M17 5 m0 0h1v1h-1z M11 6 m0 0h1v1h-1z M12 6 m0 0h1v1h-1z M13 6 m0 0h1v1h-1z M14 6 m0 0h1v1h-1z M16 6 m0 0h1v1h-1z M18 6 m0 0h1v1h-1z M10 7 m0 0h1v1h-1z M14 7 m0 0h1v1h-1z M16 7 m0 0h1v1h-1z M18 7 m0 0h1v1h-1z M10 8 m0 0h1v1h-1z M12 8 m0 0h1v1h-1z M14 8 m0 0h1v1h-1z M16 8 m0 0h1v1h-1z M18 8 m0 0h1v1h-1z M11 9 m0 0h1v1h-1z M12 9 m0 0h1v1h-1z M13 9 m0 0h1v1h-1z M16 9 m0 0h1v1h-1z M18 9 m0 0h1v1h-1z M2 10 m0 0h1v1h-1z M4 10 m0 0h1v1h-1z M8 10 m0 0h1v1h-1z M9 10 m0 0h1v1h-1z M11 10 m0 0h1v1h-1z M14 10 m0 0h1v1h-1z M16 10 m0 0h1v1h-1z M17 10 m0 0h1v1h-1z M21 10 m0 0h1v1h-1z M24 10 m0 0h1v1h-1z M26 10 m0 0h1v1h-1z M3 11 m0 0h1v1h-1z M4 11 m0 0h1v1h-1z M5 11 m0 0h1v1h-1z M6 11 m0 0h1v1h-1z M11 11 m0 0h1v1h-1z M13 11 m0 0h1v1h-1z M14 11 m0 0h1v1h-1z M16 11 m0 0h1v1h-1z M17 11 m0 0h1v1h-1z M18 11 m0 0h1v1h-1z M19 11 m0 0h1v1h-1z M20 11 m0 0h1v1h-1z M21 11 m0 0h1v1h-1z M23 11 m0 0h1v1h-1z M25 11 m0 0h1v1h-1z M26 11 m0 0h1v1h-1z M3 12 m0 0h1v1h-1z M4 12 m0 0h1v1h-1z M6 12 m0 0h1v1h-1z M7 12 m0 0h1v1h-1z M8 12 m0 0h1v1h-1z M9 12 m0 0h1v1h-1z M11 12 m0 0h1v1h-1z M12 12 m0 0h1v1h-1z M14 12 m0 0h1v1h-1z M15 12 m0 0h1v1h-1z M16 12 m0 0h1v1h-1z M17 12 m0 0h1v1h-1z M20 12 m0 0h1v1h-1z M21 12 m0 0h1v1h-1z M23 12 m0 0h1v1h-1z M24 12 m0 0h1v1h-1z M26 12 m0 0h1v1h-1z M3 13 m0 0h1v1h-1z M4 13 m0 0h1v1h-1z M12 13 m0 0h1v1h-1z M14 13 m0 0h1v1h-1z M16 13 m0 0h1v1h-1z M17 13 m0 0h1v1h-1z M18 13 m0 0h1v1h-1z M23 13 m0 0h1v1h-1z M2 14 m0 0h1v1h-1z M5 14 m0 0h1v1h-1z M6 14 m0 0h1v1h-1z M8 14 m0 0h1v1h-1z M9 14 m0 0h1v1h-1z M10 14 m0 0h1v1h-1z M11 14 m0 0h1v1h-1z M14 14 m0 0h1v1h-1z M15 14 m0 0h1v1h-1z M18 14 m0 0h1v1h-1z M20 14 m0 0h1v1h-1z M26 14 m0 0h1v1h-1z M3 15 m0 0h1v1h-1z M4 15 m0 0h1v1h-1z M5 15 m0 0h1v1h-1z M6 15 m0 0h1v1h-1z M7 15 m0 0h1v1h-1z M11 15 m0 0h1v1h-1z M14 15 m0 0h1v1h-1z M16 15 m0 0h1v1h-1z M17 15 m0 0h1v1h-1z M20 15 m0 0h1v1h-1z M21 15 m0 0h1v1h-1z M25 15 m0 0h1v1h-1z M26 15 m0 0h1v1h-1z M2 16 m0 0h1v1h-1z M3 16 m0 0h1v1h-1z M6 16 m0 0h1v1h-1z M7 16 m0 0h1v1h-1z M8 16 m0 0h1v1h-1z M10 16 m0 0h1v1h-1z M11 16 m0 0h1v1h-1z M14 16 m0 0h1v1h-1z M16 16 m0 0h1v1h-1z M17 16 m0 0h1v1h-1z M22 16 m0 0h1v1h-1z M23 16 m0 0h1v1h-1z M24 16 m0 0h1v1h-1z M26 16 m0 0h1v1h-1z M4 17 m0 0h1v1h-1z M5 17 m0 0h1v1h-1z M9 17 m0 0h1v1h-1z M11 17 m0 0h1v1h-1z M12 17 m0 0h1v1h-1z M13 17 m0 0h1v1h-1z M14 17 m0 0h1v1h-1z M16 17 m0 0h1v1h-1z M19 17 m0 0h1v1h-1z M20 17 m0 0h1v1h-1z M2 18 m0 0h1v1h-1z M3 18 m0 0h1v1h-1z M5 18 m0 0h1v1h-1z M6 18 m0 0h1v1h-1z M8 18 m0 0h1v1h-1z M9 18 m0 0h1v1h-1z M11 18 m0 0h1v1h-1z M12 18 m0 0h1v1h-1z M15 18 m0 0h1v1h-1z M18 18 m0 0h1v1h-1z M19 18 m0 0h1v1h-1z M20 18 m0 0h1v1h-1z M21 18 m0 0h1v1h-1z M22 18 m0 0h1v1h-1z M25 18 m0 0h1v1h-1z M10 19 m0 0h1v1h-1z M12 19 m0 0h1v1h-1z M16 19 m0 0h1v1h-1z M18 19 m0 0h1v1h-1z M22 19 m0 0h1v1h-1z M24 19 m0 0h1v1h-1z M26 19 m0 0h1v1h-1z M10 20 m0 0h1v1h-1z M12 20 m0 0h1v1h-1z M13 20 m0 0h1v1h-1z M15 20 m0 0h1v1h-1z M18 20 m0 0h1v1h-1z M20 20 m0 0h1v1h-1z M22 20 m0 0h1v1h-1z M23 20 m0 0h1v1h-1z M26 20 m0 0h1v1h-1z M11 21 m0 0h1v1h-1z M16 21 m0 0h1v1h-1z M17 21 m0 0h1v1h-1z M18 21 m0 0h1v1h-1z M22 21 m0 0h1v1h-1z M25 21 m0 0h1v1h-1z M26 21 m0 0h1v1h-1z M12 22 m0 0h1v1h-1z M13 22 m0 0h1v1h-1z M14 22 m0 0h1v1h-1z M15 22 m0 0h1v1h-1z M17 22 m0 0h1v1h-1z M18 22 m0 0h1v1h-1z M19 22 m0 0h1v1h-1z M20 22 m0 0h1v1h-1z M21 22 m0 0h1v1h-1z M22 22 m0 0h1v1h-1z M23 22 m0 0h1v1h-1z M26 22 m0 0h1v1h-1z M12 23 m0 0h1v1h-1z M14 23 m0 0h1v1h-1z M15 23 m0 0h1v1h-1z M17 23 m0 0h1v1h-1z M21 23 m0 0h1v1h-1z M22 23 m0 0h1v1h-1z M23 23 m0 0h1v1h-1z M24 23 m0 0h1v1h-1z M25 23 m0 0h1v1h-1z M10 24 m0 0h1v1h-1z M12 24 m0 0h1v1h-1z M14 24 m0 0h1v1h-1z M15 24 m0 0h1v1h-1z M16 24 m0 0h1v1h-1z M17 24 m0 0h1v1h-1z M18 24 m0 0h1v1h-1z M19 24 m0 0h1v1h-1z M22 24 m0 0h1v1h-1z M25 24 m0 0h1v1h-1z M26 24 m0 0h1v1h-1z M12 25 m0 0h1v1h-1z M13 25 m0 0h1v1h-1z M14 25 m0 0h1v1h-1z M16 25 m0 0h1v1h-1z M18 25 m0 0h1v1h-1z M19 25 m0 0h1v1h-1z M20 25 m0 0h1v1h-1z M21 25 m0 0h1v1h-1z M22 25 m0 0h1v1h-1z M10 26 m0 0h1v1h-1z M14 26 m0 0h1v1h-1z M15 26 m0 0h1v1h-1z M16 26 m0 0h1v1h-1z M18 26 m0 0h1v1h-1z M19 26 m0 0h1v1h-1z M23 26 m0 0h1v1h-1z M26 26 m0 0h1v1h-1z"/>
      <path class="outer" fill="#4A9B6A" d="M2 2 m0 0h7.02v7.02h-7.02zm1.17 1.17v4.68h4.68v-4.68z"/>
      <path class="inner" fill="#4A9B6A" d="M2 2 m2 2h3v3h-3z"/>
      <path class="outer" fill="#4A9B6A" d="M2 20 m0 0h7.02v7.02h-7.02zm1.17 1.17v4.68h4.68v-4.68z"/>
      <path class="inner" fill="#4A9B6A" d="M2 20 m2 2h3v3h-3z"/>
      <path class="outer" fill="#4A9B6A" d="M20 2 m0 0h7.02v7.02h-7.02zm1.17 1.17v4.68h4.68v-4.68z"/>
      <path class="inner" fill="#4A9B6A" d="M20 2 m2 2h3v3h-3z"/>
    </svg>
    <g id="text" transform="translate(0 2.3241758241758) scale(0.54945054945055)" fill="#000000">
      <path d="M3.32,10.12q-0.62,0-1.135-0.24t-0.885-0.685t-0.575-1.08t-0.205-1.425t0.205-1.415t0.575-1.06t0.885-0.665t1.135-0.23t1.135,0.235t0.89,0.67t0.58,1.06t0.205,1.405q0,0.79-0.205,1.425t-0.58,1.08t-0.89,0.685t-1.135,0.24z M3.32,9.39q0.44,0,0.795-0.19t0.61-0.545t0.395-0.85t0.14-1.115q0-0.61-0.14-1.1t-0.395-0.83t-0.61-0.525t-0.795-0.185t-0.795,0.185t-0.61,0.525t-0.395,0.83t-0.14,1.1q0,0.62,0.14,1.115t0.395,0.85t0.61,0.545t0.795,0.19z M7.46,10l0-4.86l0.68,0l0.07,0.7l0.03,0q0.35-0.35,0.735-0.585t0.895-0.235q0.77,0,1.125,0.48t0.355,1.42l0,3.08l-0.82,0l0-2.97q0-0.69-0.22-0.995t-0.7-0.305q-0.38,0-0.67,0.19t-0.66,0.56l0,3.52l-0.82,0z M13.8,10.12q-0.47,0-0.67-0.28t-0.2-0.82l0-6.14l0.82,0l0,6.2q0,0.2,0.07,0.28t0.16,0.08l0.075,0t0.105-0.02l0.11,0.62q-0.08,0.04-0.19,0.06t-0.28,0.02z M15.48,10l0-4.86l0.82,0l0,4.86l-0.82,0z M15.9,4.14q-0.24,0-0.405-0.15t-0.165-0.38q0-0.24,0.165-0.385t0.405-0.145t0.405,0.145t0.165,0.385q0,0.23-0.165,0.38t-0.405,0.15z M17.94,10l0-4.86l0.68,0l0.07,0.7l0.03,0q0.35-0.35,0.735-0.585t0.895-0.235q0.77,0,1.125,0.48t0.355,1.42l0,3.08l-0.82,0l0-2.97q0-0.69-0.22-0.995t-0.7-0.305q-0.38,0-0.67,0.19t-0.66,0.56l0,3.52l-0.82,0z M25.38,10.12q-0.49,0-0.915-0.175t-0.74-0.5t-0.495-0.795t-0.18-1.07t0.185-1.075t0.49-0.805t0.695-0.505t0.81-0.175q0.46,0,0.825,0.16t0.61,0.46t0.375,0.72t0.13,0.94q0,0.13-0.005,0.255t-0.025,0.215l-3.28,0q0.05,0.78,0.485,1.235t1.135,0.455q0.35,0,0.645-0.105t0.565-0.275l0.29,0.54q-0.32,0.2-0.71,0.35t-0.89,0.15z M23.85,7.18l2.6,0q0-0.74-0.315-1.125t-0.885-0.385q-0.26,0-0.495,0.1t-0.425,0.295t-0.315,0.475t-0.165,0.64z  M32.27,10.12q-0.69,0-1.28-0.26t-1.02-0.71l0.5-0.58q0.35,0.37,0.825,0.595t0.985,0.225q0.65,0,1.01-0.295t0.36-0.775q0-0.25-0.085-0.425t-0.23-0.3t-0.345-0.225t-0.43-0.21l-0.94-0.41q-0.23-0.1-0.47-0.24t-0.43-0.34t-0.31-0.475t-0.12-0.635q0-0.37,0.155-0.69t0.43-0.555t0.65-0.365t0.825-0.13q0.59,0,1.09,0.225t0.85,0.585l-0.45,0.54q-0.3-0.29-0.665-0.455t-0.825-0.165q-0.55,0-0.885,0.255t-0.335,0.705q0,0.24,0.095,0.405t0.255,0.29t0.35,0.22t0.39,0.175l0.93,0.4q0.28,0.12,0.53,0.275t0.43,0.36t0.285,0.48t0.105,0.635q0,0.39-0.155,0.73t-0.445,0.595t-0.7,0.4t-0.93,0.145z M36.58,10.12q-0.47,0-0.67-0.28t-0.2-0.82l0-6.14l0.82,0l0,6.2q0,0.2,0.07,0.28t0.16,0.08l0.075,0t0.105-0.02l0.11,0.62q-0.08,0.04-0.19,0.06t-0.28,0.02z M38.26,10l0-4.86l0.82,0l0,4.86l-0.82,0z M38.68,4.14q-0.24,0-0.405-0.15t-0.165-0.38q0-0.24,0.165-0.385t0.405-0.145t0.405,0.145t0.165,0.385q0,0.23-0.165,0.38t-0.405,0.15z M42.38,10.12q-0.92,0-1.465-0.66t-0.545-1.88q0-0.59,0.175-1.065t0.465-0.805t0.67-0.51t0.8-0.18t0.73,0.15t0.63,0.41l-0.04-0.83l0-1.87l0.83,0l0,7.12l-0.68,0l-0.07-0.57l-0.03,0q-0.29,0.28-0.665,0.485t-0.805,0.205z M42.56,9.43q0.34,0,0.64-0.165t0.6-0.505l0-2.54q-0.31-0.28-0.595-0.395t-0.585-0.115q-0.29,0-0.545,0.135t-0.445,0.38t-0.3,0.585t-0.11,0.76q0,0.88,0.35,1.37t0.99,0.49z M48.24,10.12q-0.49,0-0.915-0.175t-0.74-0.5t-0.495-0.795t-0.18-1.07t0.185-1.075t0.49-0.805t0.695-0.505t0.81-0.175q0.46,0,0.825,0.16t0.61,0.46t0.375,0.72t0.13,0.94q0,0.13-0.005,0.255t-0.025,0.215l-3.28,0q0.05,0.78,0.485,1.235t1.135,0.455q0.35,0,0.645-0.105t0.565-0.275l0.29,0.54q-0.32,0.2-0.71,0.35t-0.89,0.15z M46.71,7.18l2.6,0q0-0.74-0.315-1.125t-0.885-0.385q-0.26,0-0.495,0.1t-0.425,0.295t-0.315,0.475t-0.165,0.64z M52.5,10.12q-0.52,0-0.99-0.19t-0.82-0.48l0.41-0.55q0.32,0.26,0.655,0.42t0.775,0.16q0.48,0,0.72-0.22t0.24-0.54q0-0.19-0.1-0.33t-0.255-0.245t-0.355-0.185l-0.4-0.16q-0.26-0.09-0.52-0.205t-0.465-0.28t-0.335-0.385t-0.13-0.53q0-0.29,0.115-0.545t0.33-0.44t0.525-0.29t0.7-0.105q0.46,0,0.845,0.16t0.665,0.39l-0.39,0.52q-0.25-0.19-0.52-0.31t-0.59-0.12q-0.46,0-0.675,0.21t-0.215,0.49q0,0.17,0.09,0.295t0.24,0.22t0.345,0.17t0.405,0.155q0.26,0.1,0.525,0.21t0.475,0.275t0.345,0.405t0.135,0.58q0,0.3-0.115,0.56t-0.34,0.46t-0.56,0.315t-0.765,0.115z"/>
    </g>
  </defs>
  <use x="2.5" y="4" width="40.5" height="40.5" href="#qrcode"/>
  <path fill-rule="evenodd" d="M42 3.362h-2.386L39.37.902a1 1 0 0 0-1.094-.897L4.304 3.362H4a2 2 0 0 0-2 2v3H1a1 1 0 0 0 0 2h1v8H1a1 1 0 1 0 0 2h1v8H1a1 1 0 1 0 0 2h1v8H1a1 1 0 1 0 0 2h1v8H1a1 1 0 1 0 0 2h1v4a2 2 0 0 0 2 2h38a2 2 0 0 0 2-2v-49a2 2 0 0 0-2-2ZM4 4.363a1 1 0 0 0-1 1v38a1 1 0 0 0 1 1h38a1 1 0 0 0 1-1v-38a1 1 0 0 0-1-1H4Z" fill="#4A9B6A"/>
  <use x="7" y="44" width="30" height="13" href="#text"/>
</svg>
