<svg width="1086" height="1036" xmlns="http://www.w3.org/2000/svg" xmlns:xlink="http://www.w3.org/1999/xlink" overflow="hidden"><defs><clipPath id="clip0"><rect x="284" y="68" width="1086" height="1036"/></clipPath></defs><g clip-path="url(#clip0)" transform="translate(-284 -68)"><path d="M450 937.844 1311.85 937.844 1311.85 948.156 450 948.156ZM1306.69 927.531 1337.63 943 1306.69 958.469Z" fill="#000000" fill-rule="nonzero" fill-opacity="1"/><path d="M5.15625-2.27298e-06 5.1566 792.904-5.1559 792.904-5.15625 2.27298e-06ZM15.4691 787.748 0.000360892 818.685-15.4684 787.748Z" fill="#000000" fill-rule="nonzero" fill-opacity="1" transform="matrix(1 0 0 -1 452 945.685)"/><text fill="#000000" fill-opacity="1" font-family="Arial,Arial_MSFontService,sans-serif" font-style="normal" font-variant="normal" font-weight="400" font-stretch="normal" font-size="92" text-anchor="start" direction="ltr" writing-mode="lr-tb" unicode-bidi="normal" text-decoration="none" transform="matrix(1 0 0 1 993.853 1024)">Latency</text><text fill="#000000" fill-opacity="1" font-family="Arial,Arial_MSFontService,sans-serif" font-style="normal" font-variant="normal" font-weight="400" font-stretch="normal" font-size="92" text-anchor="start" direction="ltr" writing-mode="lr-tb" unicode-bidi="normal" text-decoration="none" transform="matrix(-1.83697e-16 -1 1 -1.83697e-16 403.927 503)">Accuracy</text><path d="M0 16.5C-4.20134e-15 7.3873 7.3873 0 16.5 0 25.6127-4.20134e-15 33 7.3873 33 16.5 33 25.6127 25.6127 33 16.5 33 7.3873 33-6.30201e-15 25.6127 0 16.5Z" stroke="#FFFFFF" stroke-width="4.58333" stroke-linecap="butt" stroke-linejoin="miter" stroke-miterlimit="8" stroke-opacity="1" fill="#FF0000" fill-rule="evenodd" fill-opacity="1" transform="matrix(-1 0 0 1 1245.5 213.5)"/></g></svg>