<svg width="958" height="779" xmlns="http://www.w3.org/2000/svg" xmlns:xlink="http://www.w3.org/1999/xlink" overflow="hidden"><defs><clipPath id="clip0"><rect x="1214" y="261" width="958" height="779"/></clipPath><linearGradient x1="1377" y1="940" x2="2108" y2="940" gradientUnits="userSpaceOnUse" spreadMethod="reflect" id="fill1"><stop offset="0" stop-color="#C5E0B4" stop-opacity="1"/><stop offset="0.36" stop-color="#FFD966" stop-opacity="1"/><stop offset="0.77" stop-color="#F4B183" stop-opacity="1"/><stop offset="1" stop-color="#FF0000" stop-opacity="1"/></linearGradient><linearGradient x1="0" y1="72" x2="730" y2="72" gradientUnits="userSpaceOnUse" spreadMethod="reflect" id="fill2"><stop offset="0" stop-color="#C5E0B4" stop-opacity="1"/><stop offset="0.36" stop-color="#FFD966" stop-opacity="1"/><stop offset="0.77" stop-color="#F4B183" stop-opacity="1"/><stop offset="1" stop-color="#FF0000" stop-opacity="1"/></linearGradient></defs><g clip-path="url(#clip0)" transform="translate(-1214 -261)"><path d="M1426 781.844 2045.22 781.844 2045.22 792.156 1426 792.156ZM2040.06 771.531 2071 787 2040.06 802.469Z" fill="#000000" fill-rule="nonzero" fill-opacity="1"/><path d="M5.15625-4.02637e-06 5.15659 436.385-5.15591 436.385-5.15625 4.02637e-06ZM15.4691 431.229 0.000360892 462.166-15.4684 431.229Z" fill="#000000" fill-rule="nonzero" fill-opacity="1" transform="matrix(1 0 0 -1 1430 786.167)"/><text fill="#000000" fill-opacity="1" font-family="Arial,Arial_MSFontService,sans-serif" font-style="normal" font-variant="normal" font-weight="400" font-stretch="normal" font-size="92" text-anchor="start" direction="ltr" writing-mode="lr-tb" unicode-bidi="normal" text-decoration="none" transform="matrix(1 0 0 1 1745.21 880)">Latency</text><text fill="#000000" fill-opacity="1" font-family="Arial,Arial_MSFontService,sans-serif" font-style="normal" font-variant="normal" font-weight="400" font-stretch="normal" font-size="92" text-anchor="start" direction="ltr" writing-mode="lr-tb" unicode-bidi="normal" text-decoration="none" transform="matrix(-1.83697e-16 -1 1 -1.83697e-16 1399.66 695)">Accuracy</text><path d="M1377 940 1442 875 1442 907.5 2108 907.5 2108 972.5 1442 972.5 1442 1005Z" fill="url(#fill1)" fill-rule="evenodd"/><text fill="#000000" fill-opacity="1" font-family="Calibri,Calibri_MSFontService,sans-serif" font-style="normal" font-variant="normal" font-weight="400" font-stretch="normal" font-size="83" text-anchor="start" direction="ltr" writing-mode="lr-tb" unicode-bidi="normal" text-decoration="none" transform="matrix(1 0 0 1 1474.72 968)">Lower the Better<tspan fill="#000000" fill-opacity="1" font-family="Arial,Arial_MSFontService,sans-serif" font-style="normal" font-variant="normal" font-weight="400" font-stretch="normal" font-size="92" text-anchor="start" direction="ltr" writing-mode="lr-tb" unicode-bidi="normal" text-decoration="none" x="-28.0026" y="-220">Solution 1</tspan><tspan fill="#000000" fill-opacity="1" font-family="Arial,Arial_MSFontService,sans-serif" font-style="normal" font-variant="normal" font-weight="400" font-stretch="normal" font-size="92" text-anchor="start" direction="ltr" writing-mode="lr-tb" unicode-bidi="normal" text-decoration="none" x="89.5321" y="-408">Solution 2</tspan><tspan fill="#000000" fill-opacity="1" font-family="Arial,Arial_MSFontService,sans-serif" font-style="normal" font-variant="normal" font-weight="400" font-stretch="normal" font-size="92" text-anchor="start" direction="ltr" writing-mode="lr-tb" unicode-bidi="normal" text-decoration="none" x="231.338" y="-589">Solution 3</tspan></text><path d="M0 0 53.4525 89.9856" stroke="#4472C4" stroke-width="6.875" stroke-linecap="butt" stroke-linejoin="miter" stroke-miterlimit="8" stroke-dasharray="20.625 6.875" stroke-opacity="1" fill="none" fill-rule="evenodd" transform="matrix(1 0 0 -1 1618.5 671.486)"/><path d="M0 0 125.271 101.401" stroke="#4472C4" stroke-width="6.875" stroke-linecap="butt" stroke-linejoin="miter" stroke-miterlimit="8" stroke-dasharray="20.625 6.875" stroke-opacity="1" fill="none" fill-rule="evenodd" transform="matrix(1 0 0 -1 1726.5 481.901)"/><path d="M0 72 71.9997 0 71.9997 36.0004 730 36.0004 730 108 71.9997 108 71.9997 144Z" fill="url(#fill2)" fill-rule="evenodd" transform="matrix(6.12323e-17 1 1 -6.12323e-17 1222 281)"/><text fill="#000000" fill-opacity="1" font-family="Calibri,Calibri_MSFontService,sans-serif" font-style="normal" font-variant="normal" font-weight="400" font-stretch="normal" font-size="83" text-anchor="start" direction="ltr" writing-mode="lr-tb" unicode-bidi="normal" text-decoration="none" transform="matrix(-1.83697e-16 -1 1 -1.83697e-16 1321.68 956)">Higher the Better</text></g></svg>