<svg width="2983" height="1444" xmlns="http://www.w3.org/2000/svg" xmlns:xlink="http://www.w3.org/1999/xlink" overflow="hidden"><defs><clipPath id="clip0"><rect x="-50" y="68" width="2983" height="1444"/></clipPath></defs><g clip-path="url(#clip0)" transform="translate(50 -68)"><path d="M2383.82 349.907C2377.98 306.367 2408.06 266.27 2451 260.348 2468.4 257.948 2486.09 261.535 2501.24 270.536 2517.3 239.851 2554.82 228.188 2585.05 244.488 2590.33 247.338 2595.18 250.951 2599.45 255.213 2611.95 229.777 2642.41 219.443 2667.48 232.131 2674.42 235.643 2680.47 240.722 2685.17 246.978 2705.32 222.924 2740.94 219.952 2764.72 240.341 2774.71 248.911 2781.45 260.73 2783.77 273.774 2816.79 282.91 2836.28 317.516 2827.28 351.07 2826.53 353.89 2825.58 356.654 2824.45 359.341 2850.93 394.303 2844.45 444.414 2809.96 471.267 2799.23 479.626 2786.55 485.038 2773.15 486.98 2772.85 524.594 2742.52 554.841 2705.39 554.539 2692.99 554.439 2680.85 550.863 2670.33 544.208 2657.77 586.377 2613.97 610.212 2572.5 597.444 2555.12 592.093 2540.1 580.777 2530.01 565.426 2487.55 591.397 2432.43 577.427 2406.9 534.222 2406.58 533.678 2406.27 533.13 2405.96 532.578 2378.16 535.877 2352.99 515.769 2349.73 487.666 2347.99 472.686 2352.87 457.693 2363.06 446.682 2339 432.317 2330.91 400.788 2345.01 376.259 2353.14 362.109 2367.39 352.754 2383.4 351.072Z" fill="#4FD1DE" fill-rule="evenodd" fill-opacity="1"/><path d="M2497.79 638.807C2497.79 644.545 2493.14 649.197 2487.4 649.197 2481.66 649.197 2477.01 644.545 2477.01 638.807 2477.01 633.07 2481.66 628.418 2487.4 628.418 2493.14 628.418 2497.79 633.07 2497.79 638.807Z" fill="#4FD1DE" fill-rule="evenodd" fill-opacity="1"/><path d="M2512.7 628.77C2512.7 640.245 2503.4 649.547 2491.93 649.547 2480.45 649.547 2471.15 640.245 2471.15 628.77 2471.15 617.294 2480.45 607.992 2491.93 607.992 2503.4 607.992 2512.7 617.294 2512.7 628.77Z" fill="#4FD1DE" fill-rule="evenodd" fill-opacity="1"/><path d="M2536.17 599.793C2536.17 617.006 2522.21 630.96 2505 630.96 2487.79 630.96 2473.83 617.006 2473.83 599.793 2473.83 582.58 2487.79 568.626 2505 568.626 2522.21 568.626 2536.17 582.58 2536.17 599.793Z" fill="#4FD1DE" fill-rule="evenodd" fill-opacity="1"/><path d="M2383.82 349.907C2377.98 306.367 2408.06 266.27 2451 260.348 2468.4 257.948 2486.09 261.535 2501.24 270.536 2517.3 239.851 2554.82 228.188 2585.05 244.488 2590.33 247.338 2595.18 250.951 2599.45 255.213 2611.95 229.777 2642.41 219.443 2667.48 232.131 2674.42 235.643 2680.47 240.722 2685.17 246.978 2705.32 222.924 2740.94 219.952 2764.72 240.341 2774.71 248.911 2781.45 260.73 2783.77 273.774 2816.79 282.91 2836.28 317.516 2827.28 351.07 2826.53 353.89 2825.58 356.654 2824.45 359.341 2850.93 394.303 2844.45 444.414 2809.96 471.267 2799.23 479.626 2786.55 485.038 2773.15 486.98 2772.85 524.594 2742.52 554.841 2705.39 554.539 2692.99 554.439 2680.85 550.863 2670.33 544.208 2657.77 586.377 2613.97 610.212 2572.5 597.444 2555.12 592.093 2540.1 580.777 2530.01 565.426 2487.55 591.397 2432.43 577.427 2406.9 534.222 2406.58 533.678 2406.27 533.13 2405.96 532.578 2378.16 535.877 2352.99 515.769 2349.73 487.666 2347.99 472.686 2352.87 457.693 2363.06 446.682 2339 432.317 2330.91 400.788 2345.01 376.259 2353.14 362.109 2367.39 352.754 2383.4 351.072Z" stroke="#000000" stroke-width="4.58333" stroke-linecap="butt" stroke-linejoin="miter" stroke-miterlimit="8" stroke-opacity="1" fill="none" fill-rule="evenodd"/><path d="M2497.79 638.807C2497.79 644.545 2493.14 649.197 2487.4 649.197 2481.66 649.197 2477.01 644.545 2477.01 638.807 2477.01 633.07 2481.66 628.418 2487.4 628.418 2493.14 628.418 2497.79 633.07 2497.79 638.807Z" stroke="#000000" stroke-width="4.58333" stroke-linecap="butt" stroke-linejoin="miter" stroke-miterlimit="8" stroke-opacity="1" fill="none" fill-rule="evenodd"/><path d="M2512.7 628.77C2512.7 640.245 2503.4 649.547 2491.93 649.547 2480.45 649.547 2471.15 640.245 2471.15 628.77 2471.15 617.294 2480.45 607.992 2491.93 607.992 2503.4 607.992 2512.7 617.294 2512.7 628.77Z" stroke="#000000" stroke-width="4.58333" stroke-linecap="butt" stroke-linejoin="miter" stroke-miterlimit="8" stroke-opacity="1" fill="none" fill-rule="evenodd"/><path d="M2536.17 599.793C2536.17 617.006 2522.21 630.96 2505 630.96 2487.79 630.96 2473.83 617.006 2473.83 599.793 2473.83 582.58 2487.79 568.626 2505 568.626 2522.21 568.626 2536.17 582.58 2536.17 599.793Z" stroke="#000000" stroke-width="4.58333" stroke-linecap="butt" stroke-linejoin="miter" stroke-miterlimit="8" stroke-opacity="1" fill="none" fill-rule="evenodd"/><path d="M2393.03 452.125C2382.76 452.941 2372.49 450.533 2363.6 445.225M2419.01 527.635C2414.88 529.303 2410.54 530.413 2406.13 530.937M2529.98 563.918C2526.87 559.192 2524.27 554.142 2522.22 548.854M2673.48 526.354C2673.02 531.959 2671.98 537.5 2670.38 542.883M2735.09 424.222C2758.38 435.717 2773.08 459.75 2772.87 485.998M2824.21 358.426C2820.44 367.364 2814.68 375.293 2807.38 381.59M2783.84 272.475C2784.48 276.084 2784.78 279.748 2784.73 283.415M2676.4 259.714C2678.59 254.667 2681.49 249.968 2685.02 245.762M2595.79 266.363C2596.68 262.192 2598.08 258.15 2599.96 254.331M2501.19 270.449C2506.67 273.706 2511.74 277.626 2516.29 282.123M2386.46 362.192C2385.26 358.175 2384.38 354.068 2383.82 349.91" stroke="#000000" stroke-width="4.58333" stroke-linecap="butt" stroke-linejoin="miter" stroke-miterlimit="8" stroke-opacity="1" fill="none" fill-rule="evenodd"/><path d="M2472 402C2472 347.324 2516.55 303 2571.5 303 2626.45 303 2671 347.324 2671 402 2671 456.676 2626.45 501 2571.5 501 2516.55 501 2472 456.676 2472 402ZM2491.47 402C2491.47 445.924 2527.3 481.532 2571.5 481.532 2615.7 481.532 2651.53 445.924 2651.53 402 2651.53 358.075 2615.7 322.467 2571.5 322.467 2527.3 322.467 2491.47 358.075 2491.47 402Z" fill="#000000" fill-rule="evenodd" fill-opacity="1"/><path d="M2561.21 401.528 2575.83 367.657 2565.94 363.389 2597.02 345.732 2605.48 380.459 2595.6 376.192 2580.98 410.063Z" fill="#000000" fill-rule="evenodd" fill-opacity="1"/><rect x="667" y="959" width="552" height="141" stroke="#000000" stroke-width="10.3125" stroke-linecap="butt" stroke-linejoin="miter" stroke-miterlimit="8" stroke-opacity="1" fill="#F4B183" fill-opacity="1"/><text fill="#000000" fill-opacity="1" font-family="Calibri,Calibri_MSFontService,sans-serif" font-style="normal" font-variant="normal" font-weight="400" font-stretch="normal" font-size="92" text-anchor="start" direction="ltr" writing-mode="lr-tb" unicode-bidi="normal" text-decoration="none" transform="matrix(1 0 0 1 742.457 1060)">Encryption</text><path d="M2572 303 2572 346.238" stroke="#000000" stroke-width="27.5" stroke-linecap="butt" stroke-linejoin="miter" stroke-miterlimit="8" stroke-opacity="1" fill="none" fill-rule="evenodd"/><path d="M0 0 25.0878 28.3445" stroke="#000000" stroke-width="27.5" stroke-linecap="butt" stroke-linejoin="miter" stroke-miterlimit="8" stroke-opacity="1" fill="none" fill-rule="evenodd" transform="matrix(-1 0 0 1 2642.09 332)"/><path d="M2502 332 2530.41 360.345" stroke="#000000" stroke-width="27.5" stroke-linecap="butt" stroke-linejoin="miter" stroke-miterlimit="8" stroke-opacity="1" fill="none" fill-rule="evenodd"/><path d="M2472 394 2515.27 394" stroke="#000000" stroke-width="27.5" stroke-linecap="butt" stroke-linejoin="miter" stroke-miterlimit="8" stroke-opacity="1" fill="none" fill-rule="evenodd"/><path d="M0 0 41.6098 0.000360892" stroke="#000000" stroke-width="27.5" stroke-linecap="butt" stroke-linejoin="miter" stroke-miterlimit="8" stroke-opacity="1" fill="none" fill-rule="evenodd" transform="matrix(-1 0 0 1 2670.61 402)"/><path d="M2559 396.5C2559 387.94 2565.94 381 2574.5 381 2583.06 381 2590 387.94 2590 396.5 2590 405.061 2583.06 412 2574.5 412 2565.94 412 2559 405.061 2559 396.5Z" fill="#000000" fill-rule="evenodd" fill-opacity="1"/><path d="M6.875-2.78466e-05 6.87522 54.725-6.87478 54.725-6.875 2.78466e-05ZM20.6252 47.8499 0.000360892 89.1-20.6248 47.8501Z" fill="#000000" fill-rule="nonzero" fill-opacity="1" transform="matrix(1 0 0 -1 937 1381.1)"/><path d="M0.0520779-6.8748 268.487-4.84136 268.383 8.90825-0.0520779 6.8748ZM261.716-18.643 302.809 2.29383 261.404 22.6058Z" fill="#000000" fill-rule="nonzero" fill-opacity="1" transform="matrix(1 0 0 -1 350 1031.29)"/><text fill="#000000" fill-opacity="1" font-family="Arial,Arial_MSFontService,sans-serif" font-style="normal" font-variant="normal" font-weight="400" font-stretch="normal" font-size="92" text-anchor="start" direction="ltr" writing-mode="lr-tb" unicode-bidi="normal" text-decoration="none" transform="matrix(1 0 0 1 7.81476 944)">Private Data</text><path d="M0-6.875 1376.87-6.875 1376.87 396.305 1363.12 396.305 1363.12 0 1369.99 6.875 0 6.875ZM1390.62 389.43 1369.99 430.68 1349.37 389.43Z" fill="#000000" fill-rule="nonzero" fill-opacity="1" transform="matrix(1 0 0 -1 1219 1029.68)"/><path d="M2767.33 528 2767.33 1226.16 1252.38 1226.16 1252.38 1212.41 2760.46 1212.41 2753.58 1219.28 2753.58 528ZM1259.25 1239.91 1218 1219.28 1259.25 1198.66Z" fill="#000000" fill-rule="nonzero" fill-opacity="1"/><path d="M7.94284e-06-6.875 277.999-6.87468 277.999 6.87532-7.94284e-06 6.875ZM271.124-20.6247 312.374 0.000360892 271.124 20.6253Z" fill="#000000" fill-rule="nonzero" fill-opacity="1" transform="matrix(-1 0 0 1 647.374 1219)"/><text fill="#000000" fill-opacity="1" font-family="Arial,Arial_MSFontService,sans-serif" font-style="normal" font-variant="normal" font-weight="400" font-stretch="normal" font-size="87" text-anchor="start" direction="ltr" writing-mode="lr-tb" unicode-bidi="normal" text-decoration="none" transform="matrix(1 0 0 1 312.377 1148)">Plaintext<tspan fill="#000000" fill-opacity="1" font-family="Arial,Arial_MSFontService,sans-serif" font-style="normal" font-variant="normal" font-weight="400" font-stretch="normal" font-size="87" text-anchor="start" direction="ltr" writing-mode="lr-tb" unicode-bidi="normal" text-decoration="none" x="928.993" y="0">Ciphertext</tspan></text><rect x="666" y="1150" width="552" height="139" stroke="#000000" stroke-width="10.3125" stroke-linecap="butt" stroke-linejoin="miter" stroke-miterlimit="8" stroke-opacity="1" fill="#9DC3E6" fill-opacity="1"/><text fill="#000000" fill-opacity="1" font-family="Calibri,Calibri_MSFontService,sans-serif" font-style="normal" font-variant="normal" font-weight="400" font-stretch="normal" font-size="92" text-anchor="start" direction="ltr" writing-mode="lr-tb" unicode-bidi="normal" text-decoration="none" transform="matrix(1 0 0 1 736.674 1250)">Decryption</text><path d="M948.875 853 948.875 917.625 935.125 917.625 935.125 853ZM962.625 910.75 942 952 921.375 910.75Z" fill="#000000" fill-rule="nonzero" fill-opacity="1"/><text fill="#0D0D0D" fill-opacity="1" font-family="Arial,Arial_MSFontService,sans-serif" font-style="italic" font-variant="normal" font-weight="700" font-stretch="normal" font-size="92" text-anchor="start" direction="ltr" writing-mode="lr-tb" unicode-bidi="normal" text-decoration="none" transform="matrix(1 0 0 1 44.541 1394)">Customer<tspan fill="#4FD1DE" fill-opacity="1" font-family="Arial,Arial_MSFontService,sans-serif" font-style="italic" font-variant="normal" font-weight="700" font-stretch="normal" font-size="92" text-anchor="start" direction="ltr" writing-mode="lr-tb" unicode-bidi="normal" text-decoration="none" x="2259.43" y="-1206">Cloud Server</tspan></text><path d="M1692.72 1101.6C1667.77 1042.18 1694.72 973.901 1752.92 949.104 1776.51 939.056 1802.8 937.376 1827.6 944.332 1838.42 894.742 1886.78 863.891 1935.62 875.423 1944.15 877.439 1952.37 880.701 1960.02 885.107 1967.86 844.308 2006.78 818.035 2046.96 826.424 2058.08 828.746 2068.56 833.626 2077.58 840.689 2096.72 798.923 2145.74 781.106 2187.06 800.893 2204.43 809.209 2218.46 823.374 2226.74 840.957 2276.76 841.275 2317.49 882.838 2317.72 933.789 2317.74 938.072 2317.47 942.349 2316.9 946.587 2367.64 985.976 2377.76 1059.42 2339.51 1110.62 2327.61 1126.56 2311.83 1139.07 2293.71 1146.94 2307.74 1200.32 2276.64 1254.74 2224.23 1268.5 2206.73 1273.1 2188.26 1272.67 2170.89 1267.27 2169.41 1331.78 2116.88 1382.27 2053.56 1380.04 2027.03 1379.11 2001.53 1368.82 1981.42 1350.94 1931.59 1403.94 1848.6 1405.22 1796.05 1353.79 1795.39 1353.14 1794.74 1352.49 1794.09 1351.82 1756.21 1367.12 1713.04 1348.26 1697.64 1309.71 1689.44 1289.16 1690.55 1266.06 1700.67 1246.58 1661.26 1235.43 1637.76 1193.87 1648.19 1153.75 1654.2 1130.6 1670.68 1111.91 1692.58 1103.41Z" stroke="#4472C4" stroke-width="10.3125" stroke-linecap="butt" stroke-linejoin="miter" stroke-miterlimit="8" stroke-opacity="1" fill="#FFFFFF" fill-rule="evenodd" fill-opacity="0.509804"/><path d="M1744.98 1242.83C1730.82 1247.91 1715.43 1248.43 1700.87 1244.31M1810.57 1339.84C1805.39 1343.78 1799.72 1347 1793.7 1349.44M1980.8 1348.81C1974.61 1343.31 1969 1337.15 1964.08 1330.45M2168.46 1240.78C2169.97 1248.89 2170.64 1257.14 2170.45 1265.37M2215.99 1072.61C2253.21 1079.99 2283.15 1108.4 2292.94 1145.65M2316.22 945.381C2314.34 959.48 2309.28 972.908 2301.42 984.614M2226.34 839.091C2228.63 843.957 2230.46 849.031 2231.79 854.244M2070.12 862.077C2071.27 854.092 2073.55 846.328 2076.9 839.026M1959.15 902.295C1958.8 896.047 1959.23 889.788 1960.4 883.661M1827.49 944.231C1836.46 946.748 1845.11 950.361 1853.24 954.99M1701.16 1117.99C1697.93 1112.76 1695.11 1107.28 1692.73 1101.6" stroke="#4472C4" stroke-width="10.3125" stroke-linecap="butt" stroke-linejoin="miter" stroke-miterlimit="8" stroke-opacity="1" fill="none" fill-rule="evenodd"/><text fill="#000000" fill-opacity="1" font-family="Arial,Arial_MSFontService,sans-serif" font-style="normal" font-variant="normal" font-weight="400" font-stretch="normal" font-size="87" text-anchor="start" direction="ltr" writing-mode="lr-tb" unicode-bidi="normal" text-decoration="none" transform="matrix(1 0 0 1 2340.87 1148)">Ciphertext<tspan fill="#0070C0" fill-opacity="1" font-family="Arial,Arial_MSFontService,sans-serif" font-style="normal" font-variant="normal" font-weight="400" font-stretch="normal" font-size="92" text-anchor="start" direction="ltr" writing-mode="lr-tb" unicode-bidi="normal" text-decoration="none" x="-536.461" y="-47">Computer</tspan><tspan fill="#0070C0" fill-opacity="1" font-family="Arial,Arial_MSFontService,sans-serif" font-style="normal" font-variant="normal" font-weight="400" font-stretch="normal" font-size="92" text-anchor="start" direction="ltr" writing-mode="lr-tb" unicode-bidi="normal" text-decoration="none" x="-503.53" y="63">Network</tspan><tspan fill="#C55A11" fill-opacity="1" font-family="Arial,Arial_MSFontService,sans-serif" font-style="normal" font-variant="normal" font-weight="400" font-stretch="normal" font-size="92" text-anchor="start" direction="ltr" writing-mode="lr-tb" unicode-bidi="normal" text-decoration="none" x="-1597.85" y="-306">Public Key</tspan><tspan fill="#2E76B6" fill-opacity="1" font-family="Arial,Arial_MSFontService,sans-serif" font-style="normal" font-variant="normal" font-weight="400" font-stretch="normal" font-size="92" text-anchor="start" direction="ltr" writing-mode="lr-tb" unicode-bidi="normal" text-decoration="none" x="-1594.71" y="286">Secret Key</tspan></text><path d="M51.9999 1025.62C51.9999 1043.09 108.636 1057.25 178.5 1057.25 248.364 1057.25 305 1043.09 305 1025.62L305 1235.38C305 1252.84 248.364 1267 178.5 1267 108.636 1267 51.9996 1252.84 51.9996 1235.38Z" fill="#D0CECE" fill-rule="evenodd" fill-opacity="1"/><path d="M51.9999 1025.62C51.9999 1008.16 108.636 994 178.5 994 248.364 994 305 1008.16 305 1025.62 305 1043.09 248.364 1057.25 178.5 1057.25 108.636 1057.25 51.9999 1043.09 51.9999 1025.62Z" fill="#E3E2E2" fill-rule="evenodd" fill-opacity="1"/><path d="M305 1025.62C305 1043.09 248.364 1057.25 178.5 1057.25 108.636 1057.25 51.9996 1043.09 51.9996 1025.62 51.9996 1008.16 108.636 994 178.5 994 248.364 994 305 1008.16 305 1025.62L305 1235.38C305 1252.84 248.364 1267 178.5 1267 108.636 1267 51.9996 1252.84 51.9996 1235.38L51.9999 1025.62" stroke="#000000" stroke-width="10.3125" stroke-linecap="butt" stroke-linejoin="miter" stroke-miterlimit="8" stroke-opacity="1" fill="none" fill-rule="evenodd"/><path d="M0 16.5C-4.20134e-15 7.3873 7.3873 0 16.5 0 25.6127-4.20134e-15 33 7.3873 33 16.5 33 25.6127 25.6127 33 16.5 33 7.3873 33-6.30201e-15 25.6127 0 16.5Z" stroke="#000000" stroke-width="4.58333" stroke-linecap="butt" stroke-linejoin="miter" stroke-miterlimit="8" stroke-opacity="1" fill="#FFFFFF" fill-rule="evenodd" fill-opacity="1" transform="matrix(1 0 0 -1 82.5 1175.5)"/><path d="M0 16.5C-4.20134e-15 7.3873 7.3873 0 16.5 0 25.6127-4.20134e-15 33 7.3873 33 16.5 33 25.6127 25.6127 33 16.5 33 7.3873 33-6.30201e-15 25.6127 0 16.5Z" stroke="#000000" stroke-width="4.58333" stroke-linecap="butt" stroke-linejoin="miter" stroke-miterlimit="8" stroke-opacity="1" fill="#FFFFFF" fill-rule="evenodd" fill-opacity="1" transform="matrix(1 0 0 -1 82.5 1123.5)"/><path d="M0 16.5C-4.20134e-15 7.3873 7.3873 0 16.5 0 25.6127-4.20134e-15 33 7.3873 33 16.5 33 25.6127 25.6127 33 16.5 33 7.3873 33-6.30201e-15 25.6127 0 16.5Z" stroke="#000000" stroke-width="4.58333" stroke-linecap="butt" stroke-linejoin="miter" stroke-miterlimit="8" stroke-opacity="1" fill="#FFFFFF" fill-rule="evenodd" fill-opacity="1" transform="matrix(1 0 0 -1 82.5 1226.5)"/></g></svg>