<svg width="1581" height="1188" xmlns="http://www.w3.org/2000/svg" xmlns:xlink="http://www.w3.org/1999/xlink" overflow="hidden"><defs><clipPath id="clip0"><rect x="330" y="847" width="1581" height="1188"/></clipPath></defs><g clip-path="url(#clip0)" transform="translate(-330 -847)"><rect x="333" y="848" width="1575" height="1157" fill="#DBEEF4" fill-opacity="0.501961"/><path d="M9.98621e-07-3.4375 1219.36-3.43715 1219.36 3.43785-9.98621e-07 3.4375ZM1214.78-13.7496 1242.28 0.000360892 1214.78 13.7504Z" fill="#000000" fill-rule="nonzero" fill-opacity="1" transform="matrix(1 0 0 -1 498.5 1876.5)"/><path d="M3.4375-1.41212e-06 3.43785 855.597-3.43715 855.597-3.4375 1.41212e-06ZM13.7503 851.014 0.000360892 878.514-13.7497 851.014Z" fill="#000000" fill-rule="nonzero" fill-opacity="1" transform="matrix(1 0 0 -1 498.5 1877.01)"/><text fill="#000000" fill-opacity="1" font-family="Cambria Math,Cambria Math_MSFontService,sans-serif" font-style="normal" font-variant="normal" font-weight="400" font-stretch="normal" font-size="83" text-anchor="start" direction="ltr" writing-mode="lr-tb" unicode-bidi="normal" text-decoration="none" transform="translate(1295.88 1964)">#</text><text fill="#000000" fill-opacity="1" font-family="Arial,Arial_MSFontService,sans-serif" font-style="normal" font-variant="normal" font-weight="400" font-stretch="normal" font-size="83" text-anchor="start" direction="ltr" writing-mode="lr-tb" unicode-bidi="normal" text-decoration="none" transform="matrix(1 0 0 1 1346.87 1964)">Bootstrapping</text><text fill="#000000" fill-opacity="1" font-family="Cambria Math,Cambria Math_MSFontService,sans-serif" font-style="normal" font-variant="normal" font-weight="400" font-stretch="normal" font-size="83" text-anchor="start" direction="ltr" writing-mode="lr-tb" unicode-bidi="normal" text-decoration="none" transform="translate(365.839 953)">1<tspan fill="#000000" fill-opacity="1" font-family="Cambria Math,Cambria Math_MSFontService,sans-serif" font-style="normal" font-variant="normal" font-weight="400" font-stretch="normal" font-size="83" text-anchor="start" direction="ltr" writing-mode="lr-tb" unicode-bidi="normal" text-decoration="none" x="64.1667" y="0">âˆ’</tspan></text><text fill="#000000" fill-opacity="1" font-family="Arial,Arial_MSFontService,sans-serif" font-style="normal" font-variant="normal" font-weight="400" font-stretch="normal" font-size="83" text-anchor="start" direction="ltr" writing-mode="lr-tb" unicode-bidi="normal" text-decoration="none" transform="matrix(1 0 0 1 514.797 953)">Accuracy</text><path d="M0 21C-5.34715e-15 9.40201 9.40201 0 21 0 32.5979-5.34715e-15 41.9999 9.40201 41.9999 21 41.9999 32.5979 32.5979 41.9999 21 41.9999 9.40201 41.9999-8.02073e-15 32.5979 0 21Z" stroke="#000000" stroke-width="4.58333" stroke-linecap="butt" stroke-linejoin="miter" stroke-miterlimit="8" stroke-opacity="1" fill="#000000" fill-rule="evenodd" fill-opacity="1" transform="matrix(-1 0 0 1 662.5 1077.5)"/><path d="M0 21C-5.34715e-15 9.40201 9.40201 0 21 0 32.5979-5.34715e-15 41.9999 9.40201 41.9999 21 41.9999 32.5979 32.5979 41.9999 21 41.9999 9.40201 41.9999-8.02073e-15 32.5979 0 21Z" stroke="#000000" stroke-width="4.58333" stroke-linecap="butt" stroke-linejoin="miter" stroke-miterlimit="8" stroke-opacity="1" fill="#000000" fill-rule="evenodd" fill-opacity="1" transform="matrix(-1 0 0 1 770.5 1403.5)"/><path d="M0 21C-5.34715e-15 9.40201 9.40201 0 21 0 32.5979-5.34715e-15 41.9999 9.40201 41.9999 21 41.9999 32.5979 32.5979 41.9999 21 41.9999 9.40201 41.9999-8.02073e-15 32.5979 0 21Z" stroke="#000000" stroke-width="4.58333" stroke-linecap="butt" stroke-linejoin="miter" stroke-miterlimit="8" stroke-opacity="1" fill="#000000" fill-rule="evenodd" fill-opacity="1" transform="matrix(-1 0 0 1 1672.5 1756.5)"/><path d="M0 21C-5.34715e-15 9.40201 9.40201 0 21 0 32.5979-5.34715e-15 41.9999 9.40201 41.9999 21 41.9999 32.5979 32.5979 41.9999 21 41.9999 9.40201 41.9999-8.02073e-15 32.5979 0 21Z" stroke="#000000" stroke-width="4.58333" stroke-linecap="butt" stroke-linejoin="miter" stroke-miterlimit="8" stroke-opacity="1" fill="#000000" fill-rule="evenodd" fill-opacity="1" transform="matrix(-1 0 0 1 1105.5 1665.5)"/><path d="M641.5 1119.5 733.953 1409.67" stroke="#000000" stroke-width="4.58333" stroke-linecap="butt" stroke-linejoin="miter" stroke-miterlimit="8" stroke-opacity="1" fill="none" fill-rule="evenodd"/><path d="M764.5 1439.5 1064.26 1687.14" stroke="#000000" stroke-width="4.58333" stroke-linecap="butt" stroke-linejoin="miter" stroke-miterlimit="8" stroke-opacity="1" fill="none" fill-rule="evenodd"/><path d="M1099.5 1701.5 1629.96 1777.38" stroke="#000000" stroke-width="4.58333" stroke-linecap="butt" stroke-linejoin="miter" stroke-miterlimit="8" stroke-opacity="1" fill="none" fill-rule="evenodd"/><text fill="#000000" fill-opacity="1" font-family="Cambria Math,Cambria Math_MSFontService,sans-serif" font-style="normal" font-variant="normal" font-weight="400" font-stretch="normal" font-size="83" text-anchor="start" direction="ltr" writing-mode="lr-tb" unicode-bidi="normal" text-decoration="none" transform="translate(900.138 1094)">ğ’™<tspan fill="#000000" fill-opacity="1" font-family="Cambria Math,Cambria Math_MSFontService,sans-serif" font-style="normal" font-variant="normal" font-weight="400" font-stretch="normal" font-size="61" text-anchor="start" direction="ltr" writing-mode="lr-tb" unicode-bidi="normal" text-decoration="none" x="47.5521" y="17">5</tspan><tspan fill="#000000" fill-opacity="1" font-family="Cambria Math,Cambria Math_MSFontService,sans-serif" font-style="normal" font-variant="normal" font-weight="400" font-stretch="normal" font-size="83" text-anchor="start" direction="ltr" writing-mode="lr-tb" unicode-bidi="normal" text-decoration="none" x="-352.71" y="126">ğ’™</tspan><tspan fill="#000000" fill-opacity="1" font-family="Cambria Math,Cambria Math_MSFontService,sans-serif" font-style="normal" font-variant="normal" font-weight="400" font-stretch="normal" font-size="61" text-anchor="start" direction="ltr" writing-mode="lr-tb" unicode-bidi="normal" text-decoration="none" x="-307.06" y="143">1</tspan></text><path d="M0 21C-5.34715e-15 9.40201 9.40201 0 21 0 32.5979-5.34715e-15 41.9999 9.40201 41.9999 21 41.9999 32.5979 32.5979 41.9999 21 41.9999 9.40201 41.9999-8.02073e-15 32.5979 0 21Z" stroke="#000000" stroke-width="4.58333" stroke-linecap="butt" stroke-linejoin="miter" stroke-miterlimit="8" stroke-opacity="1" fill="none" fill-rule="evenodd" transform="matrix(-1 0 0 1 1026.5 984.5)"/><path d="M0 21.0001C-5.3472e-15 9.40209 9.40209 0 21.0001 0 32.5982-5.3472e-15 42.0003 9.40209 42.0003 21.0001 42.0003 32.5982 32.5982 42.0003 21.0001 42.0003 9.40209 42.0003-8.0208e-15 32.5982 0 21.0001Z" stroke="#000000" stroke-width="4.58333" stroke-linecap="butt" stroke-linejoin="miter" stroke-miterlimit="8" stroke-opacity="1" fill="none" fill-rule="evenodd" transform="matrix(-1 0 0 1 1109.5 1265.5)"/><path d="M0 21.5C-5.34715e-15 9.62587 9.40201 0 21 0 32.5979-5.47447e-15 41.9999 9.62587 41.9999 21.5 41.9999 33.3741 32.5979 43 21 43 9.40201 43-8.02073e-15 33.3741 0 21.5Z" stroke="#000000" stroke-width="4.58333" stroke-linecap="butt" stroke-linejoin="miter" stroke-miterlimit="8" stroke-opacity="1" fill="none" fill-rule="evenodd" transform="matrix(-1 0 0 1 1204.5 1531.5)"/><path d="M0 21C-5.34715e-15 9.40201 9.40201 0 21 0 32.5979-5.34715e-15 41.9999 9.40201 41.9999 21 41.9999 32.5979 32.5979 41.9999 21 41.9999 9.40201 41.9999-8.02073e-15 32.5979 0 21Z" stroke="#000000" stroke-width="4.58333" stroke-linecap="butt" stroke-linejoin="miter" stroke-miterlimit="8" stroke-opacity="1" fill="none" fill-rule="evenodd" transform="matrix(-1 0 0 1 1584.5 1657.5)"/><path d="M1005.5 1026.5 1073.43 1272.12" stroke="#000000" stroke-width="4.58333" stroke-linecap="butt" stroke-linejoin="miter" stroke-miterlimit="8" stroke-opacity="1" fill="none" fill-rule="evenodd"/><path d="M1088.5 1307.5 1162.25 1552.92" stroke="#000000" stroke-width="4.58333" stroke-linecap="butt" stroke-linejoin="miter" stroke-miterlimit="8" stroke-opacity="1" fill="none" fill-rule="evenodd"/><path d="M1198.5 1567.5 1542.87 1678.02" stroke="#000000" stroke-width="4.58333" stroke-linecap="butt" stroke-linejoin="miter" stroke-miterlimit="8" stroke-opacity="1" fill="none" fill-rule="evenodd"/><text fill="#000000" fill-opacity="1" font-family="Cambria Math,Cambria Math_MSFontService,sans-serif" font-style="normal" font-variant="normal" font-weight="400" font-stretch="normal" font-size="83" text-anchor="start" direction="ltr" writing-mode="lr-tb" unicode-bidi="normal" text-decoration="none" transform="translate(611.36 1520)">ğ’™<tspan fill="#000000" fill-opacity="1" font-family="Cambria Math,Cambria Math_MSFontService,sans-serif" font-style="normal" font-variant="normal" font-weight="400" font-stretch="normal" font-size="61" text-anchor="start" direction="ltr" writing-mode="lr-tb" unicode-bidi="normal" text-decoration="none" x="47.5521" y="17">2</tspan><tspan fill="#000000" fill-opacity="1" font-family="Cambria Math,Cambria Math_MSFontService,sans-serif" font-style="normal" font-variant="normal" font-weight="400" font-stretch="normal" font-size="83" text-anchor="start" direction="ltr" writing-mode="lr-tb" unicode-bidi="normal" text-decoration="none" x="355.646" y="263">ğ’™</tspan><tspan fill="#000000" fill-opacity="1" font-family="Cambria Math,Cambria Math_MSFontService,sans-serif" font-style="normal" font-variant="normal" font-weight="400" font-stretch="normal" font-size="61" text-anchor="start" direction="ltr" writing-mode="lr-tb" unicode-bidi="normal" text-decoration="none" x="403.198" y="279">3</tspan><tspan fill="#000000" fill-opacity="1" font-family="Cambria Math,Cambria Math_MSFontService,sans-serif" font-style="normal" font-variant="normal" font-weight="400" font-stretch="normal" font-size="83" text-anchor="start" direction="ltr" writing-mode="lr-tb" unicode-bidi="normal" text-decoration="none" x="912.053" y="329">ğ’™</tspan><tspan fill="#000000" fill-opacity="1" font-family="Cambria Math,Cambria Math_MSFontService,sans-serif" font-style="normal" font-variant="normal" font-weight="400" font-stretch="normal" font-size="61" text-anchor="start" direction="ltr" writing-mode="lr-tb" unicode-bidi="normal" text-decoration="none" x="959.605" y="346">4</tspan><tspan fill="#000000" fill-opacity="1" font-family="Cambria Math,Cambria Math_MSFontService,sans-serif" font-style="normal" font-variant="normal" font-weight="400" font-stretch="normal" font-size="83" text-anchor="start" direction="ltr" writing-mode="lr-tb" unicode-bidi="normal" text-decoration="none" x="606.582" y="5">ğ’™</tspan><tspan fill="#000000" fill-opacity="1" font-family="Cambria Math,Cambria Math_MSFontService,sans-serif" font-style="normal" font-variant="normal" font-weight="400" font-stretch="normal" font-size="61" text-anchor="start" direction="ltr" writing-mode="lr-tb" unicode-bidi="normal" text-decoration="none" x="654.134" y="21">7</tspan><tspan fill="#000000" fill-opacity="1" font-family="Cambria Math,Cambria Math_MSFontService,sans-serif" font-style="normal" font-variant="normal" font-weight="400" font-stretch="normal" font-size="83" text-anchor="start" direction="ltr" writing-mode="lr-tb" unicode-bidi="normal" text-decoration="none" x="521.482" y="-220">ğ’™</tspan><tspan fill="#000000" fill-opacity="1" font-family="Cambria Math,Cambria Math_MSFontService,sans-serif" font-style="normal" font-variant="normal" font-weight="400" font-stretch="normal" font-size="61" text-anchor="start" direction="ltr" writing-mode="lr-tb" unicode-bidi="normal" text-decoration="none" x="569.034" y="-203">6</tspan><tspan fill="#000000" fill-opacity="1" font-family="Cambria Math,Cambria Math_MSFontService,sans-serif" font-style="normal" font-variant="normal" font-weight="400" font-stretch="normal" font-size="83" text-anchor="start" direction="ltr" writing-mode="lr-tb" unicode-bidi="normal" text-decoration="none" x="948.698" y="92">ğ’™</tspan><tspan fill="#000000" fill-opacity="1" font-family="Cambria Math,Cambria Math_MSFontService,sans-serif" font-style="normal" font-variant="normal" font-weight="400" font-stretch="normal" font-size="61" text-anchor="start" direction="ltr" writing-mode="lr-tb" unicode-bidi="normal" text-decoration="none" x="996.25" y="109">8</tspan></text><path d="M1089.5 1681.5 1894.25 1688.54" stroke="#4BACC6" stroke-width="4.58333" stroke-linecap="butt" stroke-linejoin="miter" stroke-miterlimit="8" stroke-dasharray="18.3333 13.75" stroke-opacity="1" fill="none" fill-rule="evenodd"/><path d="M0 0 4.12211 765.057" stroke="#4BACC6" stroke-width="4.58333" stroke-linecap="butt" stroke-linejoin="miter" stroke-miterlimit="8" stroke-dasharray="18.3333 13.75" stroke-opacity="1" fill="none" fill-rule="evenodd" transform="matrix(1 0 0 -1 1089.5 1679.56)"/></g></svg>