<svg width="958" height="784" xmlns="http://www.w3.org/2000/svg" xmlns:xlink="http://www.w3.org/1999/xlink" overflow="hidden"><defs><clipPath id="clip0"><rect x="1567" y="91" width="958" height="784"/></clipPath><linearGradient x1="1729" y1="773.5" x2="2459" y2="773.5" gradientUnits="userSpaceOnUse" spreadMethod="reflect" id="fill1"><stop offset="0" stop-color="#C5E0B4" stop-opacity="1"/><stop offset="0.36" stop-color="#FFD966" stop-opacity="1"/><stop offset="0.77" stop-color="#F4B183" stop-opacity="1"/><stop offset="1" stop-color="#FF0000" stop-opacity="1"/></linearGradient><linearGradient x1="0" y1="72.5" x2="731" y2="72.5" gradientUnits="userSpaceOnUse" spreadMethod="reflect" id="fill2"><stop offset="0" stop-color="#C5E0B4" stop-opacity="1"/><stop offset="0.36" stop-color="#FFD966" stop-opacity="1"/><stop offset="0.77" stop-color="#F4B183" stop-opacity="1"/><stop offset="1" stop-color="#FF0000" stop-opacity="1"/></linearGradient></defs><g clip-path="url(#clip0)" transform="translate(-1567 -91)"><path d="M1777 615.844 2396.22 615.844 2396.22 626.157 1777 626.156ZM2391.06 605.532 2422 621.001 2391.06 636.469Z" fill="#000000" fill-rule="nonzero" fill-opacity="1"/><path d="M5.15625-4.02637e-06 5.15659 436.385-5.15591 436.385-5.15625 4.02637e-06ZM15.4691 431.229 0.000360892 462.166-15.4684 431.229Z" fill="#000000" fill-rule="nonzero" fill-opacity="1" transform="matrix(1 0 0 -1 1781 620.167)"/><text fill="#000000" fill-opacity="1" font-family="Arial,Arial_MSFontService,sans-serif" font-style="normal" font-variant="normal" font-weight="400" font-stretch="normal" font-size="92" text-anchor="start" direction="ltr" writing-mode="lr-tb" unicode-bidi="normal" text-decoration="none" transform="matrix(1 0 0 1 2096.35 713)">Latency</text><text fill="#000000" fill-opacity="1" font-family="Arial,Arial_MSFontService,sans-serif" font-style="normal" font-variant="normal" font-weight="400" font-stretch="normal" font-size="92" text-anchor="start" direction="ltr" writing-mode="lr-tb" unicode-bidi="normal" text-decoration="none" transform="matrix(-1.83697e-16 -1 1 -1.83697e-16 1750.8 528)">Accuracy</text><path d="M1729 773.501 1793.5 709 1793.5 741.25 2459 741.25 2459 805.75 1793.5 805.75 1793.5 838Z" fill="url(#fill1)" fill-rule="evenodd"/><text fill="#000000" fill-opacity="1" font-family="Calibri,Calibri_MSFontService,sans-serif" font-style="normal" font-variant="normal" font-weight="400" font-stretch="normal" font-size="83" text-anchor="start" direction="ltr" writing-mode="lr-tb" unicode-bidi="normal" text-decoration="none" transform="matrix(1 0 0 1 1825.86 801)">Lower the Better<tspan fill="#000000" fill-opacity="1" font-family="Arial,Arial_MSFontService,sans-serif" font-style="normal" font-variant="normal" font-weight="400" font-stretch="normal" font-size="92" text-anchor="start" direction="ltr" writing-mode="lr-tb" unicode-bidi="normal" text-decoration="none" x="-28.0026" y="-220">Solution 1</tspan><tspan fill="#000000" fill-opacity="1" font-family="Arial,Arial_MSFontService,sans-serif" font-style="normal" font-variant="normal" font-weight="400" font-stretch="normal" font-size="92" text-anchor="start" direction="ltr" writing-mode="lr-tb" unicode-bidi="normal" text-decoration="none" x="89.5321" y="-408">Solution 2</tspan><tspan fill="#000000" fill-opacity="1" font-family="Arial,Arial_MSFontService,sans-serif" font-style="normal" font-variant="normal" font-weight="400" font-stretch="normal" font-size="92" text-anchor="start" direction="ltr" writing-mode="lr-tb" unicode-bidi="normal" text-decoration="none" x="231.338" y="-589">Solution 3</tspan></text><path d="M0 0 53.4525 89.9856" stroke="#4472C4" stroke-width="6.875" stroke-linecap="butt" stroke-linejoin="miter" stroke-miterlimit="8" stroke-dasharray="20.625 6.875" stroke-opacity="1" fill="none" fill-rule="evenodd" transform="matrix(1 0 0 -1 1969.5 504.486)"/><path d="M0 0 125.271 101.401" stroke="#4472C4" stroke-width="6.875" stroke-linecap="butt" stroke-linejoin="miter" stroke-miterlimit="8" stroke-dasharray="20.625 6.875" stroke-opacity="1" fill="none" fill-rule="evenodd" transform="matrix(1 0 0 -1 2077.5 314.901)"/><path d="M0 72.5004 72.5004 0 72.5004 36.2502 731 36.2502 731 108.75 72.5004 108.75 72.5004 145Z" fill="url(#fill2)" fill-rule="evenodd" transform="matrix(6.12323e-17 1 1 -6.12323e-17 1573 114)"/><text fill="#000000" fill-opacity="1" font-family="Calibri,Calibri_MSFontService,sans-serif" font-style="normal" font-variant="normal" font-weight="400" font-stretch="normal" font-size="83" text-anchor="start" direction="ltr" writing-mode="lr-tb" unicode-bidi="normal" text-decoration="none" transform="matrix(-1.83697e-16 -1 1 -1.83697e-16 1672.82 789)">Higher the Better</text></g></svg>